#!OML:ASF G:\JayActor3\Patient Classification 1\Patient 1\Session 2\male.ASF
:FULLY-SPECIFIED
:DEGREES
3370
root -38.9081 16.6722 -4.03731 1452.41 -238.837 365.783
lowerback 5.35812 -0.0660285 -5.08048
upperback 11.0325 0.812853 -1.16378
thorax 8.64345 0.372516 1.66652
lowerneck -5.31599 -6.93147 -2.91252
upperneck 13.7518 -11.3649 20.9707
head 6.4792 -4.01371 6.40843
rclavicle 4.45278e-014 2.70347e-014
rhumerus -22.1696 20.6087 -95.0368
rradius 43.0084
rwrist -1.74763
rhand -23.756 8.77829
rfingers 7.12502
rthumb 2.71298 -21.1842
lclavicle 4.45278e-014 2.70347e-014
lhumerus -22.3976 -8.65736 91.2232
lradius 37.8565
lwrist 23.7359
lhand -19.0028 19.3518
lfingers 7.12502
lthumb 7.30245 49.2058
rfemur -32.6489 2.28118 21.6934
rtibia 49.9567
rfoot -25.2868 -17.6841
rtoes 19.8386
lfemur -15.9185 8.15449 -17.7813
ltibia 29.3844
lfoot -18.7448 9.62961
ltoes -19.223
3371
root -38.9043 16.6746 -4.04348 1452.48 -239.52 365.84
lowerback 5.29392 -0.0664457 -5.04405
upperback 11.0132 0.80414 -1.15309
thorax 8.65842 0.366245 1.65742
lowerneck -5.27911 -6.89778 -2.71321
upperneck 13.7051 -11.3121 20.8391
head 6.43125 -3.99441 6.33368
rclavicle 3.81667e-014 -2.8625e-014
rhumerus -22.1329 20.5292 -95.044
rradius 42.785
rwrist -1.755
rhand -23.6528 8.6949
rfingers 7.12502
rthumb 2.81269 -21.2663
lclavicle 3.81667e-014 -2.8625e-014
lhumerus -22.4608 -8.57379 91.1978
lradius 37.6712
lwrist 23.8041
lhand -18.7953 19.4141
lfingers 7.12502
lthumb 7.50277 49.2611
rfemur -32.4232 2.19273 21.6639
rtibia 49.5325
rfoot -25.1462 -17.7597
rtoes 20.1213
lfemur -15.6916 8.43919 -17.8712
ltibia 29.2139
lfoot -18.8132 10.0294
ltoes -19.4274
3372
root -38.8986 16.6771 -4.0495 1452.51 -240.209 365.875
lowerback 5.24354 -0.0465462 -4.99798
upperback 10.9903 0.823282 -1.1596
thorax 8.65963 0.376083 1.62523
lowerneck -5.21944 -6.87943 -2.46101
upperneck 13.6482 -11.2777 20.6787
head 6.37395 -3.98486 6.23894
rclavicle -5.725e-014 3.18055e-014
rhumerus -22.1107 20.3731 -95.063
rradius 42.5676
rwrist -1.76285
rhand -23.546 8.62222
rfingers 7.12502
rthumb 2.91585 -21.3376
lclavicle -5.725e-014 3.18055e-014
lhumerus -22.5456 -8.55478 91.1626
lradius 37.4927
lwrist 23.9026
lhand -18.5587 19.4758
lfingers 7.12502
lthumb 7.73112 49.3145
rfemur -32.1955 2.13889 21.6267
rtibia 49.0836
rfoot -24.9891 -17.7808
rtoes 20.2535
lfemur -15.4448 8.71693 -17.972
ltibia 29.0326
lfoot -18.8832 10.4508
ltoes -19.6738
3373
root -38.8908 16.6791 -4.05474 1452.55 -240.914 365.909
lowerback 5.20273 -0.010546 -4.94722
upperback 10.9627 0.863758 -1.17565
thorax 8.64864 0.397703 1.58068
lowerneck -5.16516 -6.87505 -2.22739
upperneck 13.6137 -11.2668 20.5377
head 6.33024 -3.98382 6.15255
rclavicle -1.74931e-014 3.26007e-014
rhumerus -22.0993 20.1776 -95.0911
rradius 42.3596
rwrist -1.78669
rhand -23.4423 8.56422
rfingers 7.12502
rthumb 3.01599 -21.3942
lclavicle -1.74931e-014 3.26007e-014
lhumerus -22.648 -8.57009 91.1199
lradius 37.3218
lwrist 24.0275
lhand -18.3039 19.529
lfingers 7.12502
lthumb 7.97701 49.3584
rfemur -31.9788 2.13798 21.5964
rtibia 48.6153
rfoot -24.8238 -17.7142
rtoes 20.2381
lfemur -15.1949 9.0015 -18.0712
ltibia 28.8521
lfoot -18.9621 10.8868
ltoes -19.9359
3374
root -38.8807 16.6809 -4.05895 1452.62 -241.628 365.965
lowerback 5.15684 0.0231976 -4.91415
upperback 10.9352 0.900008 -1.17495
thorax 8.64115 0.414605 1.56367
lowerneck -5.13297 -6.86985 -2.08279
upperneck 13.6165 -11.2594 20.4271
head 6.30944 -3.98348 6.09172
rclavicle -1.51076e-014 -2.06736e-014
rhumerus -22.089 20.028 -95.1043
rradius 42.157
rwrist -1.8177
rhand -23.3559 8.50362
rfingers 7.12502
rthumb 3.09942 -21.4536
lclavicle -1.51076e-014 -2.06736e-014
lhumerus -22.7592 -8.54568 91.0941
lradius 37.1782
lwrist 24.1519
lhand -18.0662 19.6782
lfingers 7.12502
lthumb 8.20645 49.4988
rfemur -31.7808 2.18308 21.5888
rtibia 48.1368
rfoot -24.6905 -17.5449
rtoes 20.1104
lfemur -14.9549 9.28843 -18.1564
ltibia 28.6826
lfoot -19.0606 11.3261
ltoes -20.1598
3375
root -38.8692 16.6821 -4.06251 1452.72 -242.349 366.037
lowerback 5.09665 0.0736608 -4.85012
upperback 10.897 0.958768 -1.18929
thorax 8.62844 0.445718 1.51416
lowerneck -5.07927 -6.87896 -1.91036
upperneck 13.6023 -11.2686 20.3091
head 6.27958 -3.99245 6.02258
rclavicle 2.06736e-014 -4.6118e-014
rhumerus -22.0892 19.8071 -95.1312
rradius 41.9638
rwrist -1.86218
rhand -23.2724 8.44564
rfingers 7.12502
rthumb 3.18005 -21.5104
lclavicle 2.06736e-014 -4.6118e-014
lhumerus -22.8893 -8.57751 91.0575
lradius 37.0463
lwrist 24.3031
lhand -17.8458 19.796
lfingers 7.12502
lthumb 8.41915 49.6082
rfemur -31.6251 2.22758 21.6052
rtibia 47.6642
rfoot -24.5992 -17.271
rtoes 19.9196
lfemur -14.7493 9.56185 -18.2377
ltibia 28.5331
lfoot -19.1682 11.7941
ltoes -20.3916
3376
root -38.8571 16.6828 -4.06602 1452.88 -243.084 366.132
lowerback 5.00825 0.111562 -4.78542
upperback 10.854 0.999623 -1.19039
thorax 8.62777 0.466384 1.47818
lowerneck -5.03479 -6.8727 -1.77603
upperneck 13.5918 -11.2531 20.163
head 6.24954 -3.99395 5.95246
rclavicle 4.21423e-014 2.14687e-014
rhumerus -22.0807 19.6512 -95.142
rradius 41.7684
rwrist -1.89777
rhand -23.2 8.37932
rfingers 7.12502
rthumb 3.24997 -21.5757
lclavicle 4.21423e-014 2.14687e-014
lhumerus -23.0175 -8.5314 91.0332
lradius 36.9263
lwrist 24.4555
lhand -17.6519 19.8754
lfingers 7.12502
lthumb 8.60631 49.68
rfemur -31.5321 2.248 21.6476
rtibia 47.2143
rfoot -24.538 -16.9324
rtoes 19.7129
lfemur -14.5949 9.80868 -18.3227
ltibia 28.4025
lfoot -19.2858 12.3003
ltoes -20.5704
3377
root -38.8446 16.6835 -4.06958 1453.08 -243.813 366.241
lowerback 4.89676 0.133979 -4.72032
upperback 10.8133 1.01959 -1.17645
thorax 8.64422 0.475285 1.45775
lowerneck -5.00953 -6.85232 -1.67252
upperneck 13.5864 -11.216 19.9881
head 6.22171 -3.98828 5.87933
rclavicle 7.95139e-016 -2.22639e-014
rhumerus -22.0478 19.5391 -95.1251
rradius 41.566
rwrist -1.9413
rhand -23.1329 8.31296
rfingers 7.12502
rthumb 3.31473 -21.641
lclavicle 7.95139e-016 -2.22639e-014
lhumerus -23.1303 -8.41047 91.0238
lradius 36.8096
lwrist 24.6073
lhand -17.4871 19.8924
lfingers 7.12502
lthumb 8.76529 49.6904
rfemur -31.4876 2.22748 21.715
rtibia 46.8027
rfoot -24.5141 -16.5675
rtoes 19.6438
lfemur -14.4816 10.0124 -18.4131
ltibia 28.2861
lfoot -19.3964 12.8513
ltoes -20.7281
3378
root -38.8318 16.6846 -4.07356 1453.28 -244.518 366.331
lowerback 4.77388 0.120244 -4.6759
upperback 10.7832 0.991244 -1.13924
thorax 8.68195 0.457013 1.47245
lowerneck -5.02263 -6.80549 -1.62278
upperneck 13.6016 -11.1418 19.7764
head 6.20328 -3.968 5.80547
rclavicle 9.54166e-015 -2.54444e-014
rhumerus -21.977 19.5141 -95.0708
rradius 41.3457
rwrist -1.99108
rhand -23.0099 8.26478
rfingers 7.12502
rthumb 3.43353 -21.6873
lclavicle 9.54166e-015 -2.54444e-014
lhumerus -23.2161 -8.15644 91.0327
lradius 36.6872
lwrist 24.7464
lhand -17.3276 19.8532
lfingers 7.12502
lthumb 8.91921 49.6447
rfemur -31.4723 2.14807 21.7925
rtibia 46.4373
rfoot -24.5327 -16.2123
rtoes 19.7179
lfemur -14.3907 10.1643 -18.519
ltibia 28.1725
lfoot -19.4929 13.4253
ltoes -20.8107
